<svg width="24" height="25" viewBox="0 0 24 25" fill="none" xmlns="http://www.w3.org/2000/svg">
<path d="M2.66668 0.833496L0 0.833496L0 16.8335H2.66668L2.66668 0.833496Z" fill="#0E0E0E"/>
<path d="M9.3737 0.833496L6.70703 0.833496L6.70703 16.8335H9.3737L9.3737 0.833496Z" fill="#0E0E0E"/>
<path d="M13.4142 0.833496L10.7476 0.833496L10.7476 16.8335H13.4142L13.4142 0.833496Z" fill="#0E0E0E"/>
<path d="M24 0.833496L20.0404 0.833496L20.0404 16.8335H24L24 0.833496Z" fill="#0E0E0E"/>
<g filter="url(#filter0_d)">
<path d="M5.33334 0.833496L4.04041 0.833496L4.04041 16.8335H5.33334L5.33334 0.833496Z" fill="#0E0E0E"/>
</g>
<path d="M16 0.833496L14.707 0.833496L14.707 16.8335H16L16 0.833496Z" fill="#0E0E0E"/>
<path d="M18.6666 0.833496L17.3737 0.833496L17.3737 16.8335H18.6666L18.6666 0.833496Z" fill="#0E0E0E"/>
<defs>
<filter id="filter0_d" x="0.0404053" y="0.833496" width="9.29293" height="24" filterUnits="userSpaceOnUse" color-interpolation-filters="sRGB">
<feFlood flood-opacity="0" result="BackgroundImageFix"/>
<feColorMatrix in="SourceAlpha" type="matrix" values="0 0 0 0 0 0 0 0 0 0 0 0 0 0 0 0 0 0 127 0"/>
<feOffset dy="4"/>
<feGaussianBlur stdDeviation="2"/>
<feColorMatrix type="matrix" values="0 0 0 0 0 0 0 0 0 0 0 0 0 0 0 0 0 0 0.25 0"/>
<feBlend mode="normal" in2="BackgroundImageFix" result="effect1_dropShadow"/>
<feBlend mode="normal" in="SourceGraphic" in2="effect1_dropShadow" result="shape"/>
</filter>
</defs>
</svg>
